<svg id="Layer_1" data-name="Layer 1" xmlns="http://www.w3.org/2000/svg" viewBox="0 0 298.5 298.5"><defs><style>.cls-1{fill:#2196f3;}.cls-2{fill:#fff;}</style></defs><title>chatgen 300x300</title><circle class="cls-1" cx="149.25" cy="149.25" r="149.25"/><path class="cls-2" d="M231,182.06v72.15c0,.92,0,1.85,0,2.77,0,2.07-.91,2.22-2.52,1.29q-14.1-8.2-28.24-16.37c-6.84-4-13.69-7.89-20.52-11.89a12.38,12.38,0,0,0-6.51-1.42c-30.32,0-60.64-.28-90.95.16-12.62.19-24.09-10.7-24-24,.12-41.73,0-83.45.06-125.18A23.52,23.52,0,0,1,82,55.9c31.66-.16,63.31,0,95-.09,2.51,0,3.51.86,3.44,3.41-.13,4.52,0,9,0,13.57,0,3.87-.14,4-4,4q-38.7,0-77.39,0c-7,0-12.9,2.31-16.83,8.45a18.34,18.34,0,0,0-2.85,9.93q0,46.41,0,92.8c0,11.36,7.7,18.88,19.1,18.9q43,.06,86,0a9.83,9.83,0,0,1,5.24,1.36c5.57,3.3,11.26,6.38,16.84,9.65,2.2,1.29,3,.73,2.77-1.67,0-.2,0-.41,0-.61.74-35.44.5-70.89.54-106.33,0-4.67,0-4.67,4.56-4.69,3.91,0,7.81,0,11.72,0,4.82,0,4.83,0,4.83,4.72Z" transform="translate(-0.5 -1)"/><path class="cls-2" d="M236,63.91c-.06,8.61-7.75,16.11-16.31,15.9a16.47,16.47,0,0,1-15.84-16.39,16.08,16.08,0,0,1,32.15.49Z" transform="translate(-0.5 -1)"/></svg>